<?xml version="1.0" encoding="UTF-8" standalone="no"?>
<svg
   xmlns:dc="http://purl.org/dc/elements/1.1/"
   xmlns:cc="http://creativecommons.org/ns#"
   xmlns:rdf="http://www.w3.org/1999/02/22-rdf-syntax-ns#"
   xmlns:svg="http://www.w3.org/2000/svg"
   xmlns="http://www.w3.org/2000/svg"
   xmlns:sodipodi="http://sodipodi.sourceforge.net/DTD/sodipodi-0.dtd"
   xmlns:inkscape="http://www.inkscape.org/namespaces/inkscape"
   version="1.1"
   x="0px"
   y="0px"
   viewBox="0 0 43.709 80"
   enable-background="new 0 0 96 96"
   xml:space="preserve"
   id="svg26"
   sodipodi:docname="bat_full.svg"
   width="43.709"
   height="80"
   inkscape:version="0.92.3 (2405546, 2018-03-11)"><metadata
     id="metadata32"><rdf:RDF><cc:Work
         rdf:about=""><dc:format>image/svg+xml</dc:format><dc:type
           rdf:resource="http://purl.org/dc/dcmitype/StillImage" /><dc:title /></cc:Work></rdf:RDF></metadata><defs
     id="defs30" /><sodipodi:namedview
     pagecolor="#ffffff"
     bordercolor="#666666"
     borderopacity="1"
     objecttolerance="10"
     gridtolerance="10"
     guidetolerance="10"
     inkscape:pageopacity="0"
     inkscape:pageshadow="2"
     inkscape:window-width="954"
     inkscape:window-height="1042"
     id="namedview28"
     showgrid="false"
     inkscape:zoom="1.9666667"
     inkscape:cx="13.200343"
     inkscape:cy="28"
     inkscape:window-x="960"
     inkscape:window-y="16"
     inkscape:window-maximized="0"
     inkscape:current-layer="svg26" /><g
     id="g20"
     transform="translate(-26.146,-8)"
     style="fill:#00ff00;fill-opacity:1"><path
       d="M 54.34,14.108 H 41.661 26.146 V 88 H 69.855 V 14.108 Z M 68.015,86.16 H 27.986 V 15.949 H 41.661 54.34 68.015 Z"
       id="path2"
       inkscape:connector-curvature="0"
       style="fill:#00ff00;fill-opacity:1" /><rect
       x="41.660999"
       y="8"
       width="12.679"
       height="5.3569999"
       id="rect4"
       style="fill:#00ff00;fill-opacity:1" /><polygon
       points="40.208,68.412 30.085,68.412 30.085,81.117 65.914,81.117 65.914,68.412 46.267,68.412 40.878,78.943 36.075,76.489 "
       id="polygon6"
       style="fill:#00ff00;fill-opacity:1" /><polygon
       points="30.086,52.605 30.085,52.605 30.085,65.311 30.086,65.311 41.795,65.311 48.296,52.605 "
       id="polygon8"
       style="fill:#00ff00;fill-opacity:1" /><polygon
       points="65.914,65.311 65.916,65.311 65.916,52.605 65.914,52.605 54.355,52.605 47.854,65.311 "
       id="polygon10"
       style="fill:#00ff00;fill-opacity:1" /><polygon
       points="59.094,43.344 55.942,49.504 65.914,49.504 65.916,49.504 65.916,36.798 65.916,36.797 65.914,36.797 47.993,36.797 44.125,43.344 "
       id="polygon12"
       style="fill:#00ff00;fill-opacity:1" /><polygon
       points="34.671,48.739 41.727,36.797 30.086,36.797 30.085,36.797 30.085,49.504 30.086,49.504 49.883,49.504 50.274,48.739 "
       id="polygon14"
       style="fill:#00ff00;fill-opacity:1" /><polygon
       points="30.086,33.695 43.56,33.695 51.066,20.99 30.086,20.99 "
       id="polygon16"
       style="fill:#00ff00;fill-opacity:1" /><polygon
       points="57.333,20.99 49.826,33.695 65.916,33.695 65.916,20.99 "
       id="polygon18"
       style="fill:#00ff00;fill-opacity:1" /></g></svg>