<?xml version="1.0" encoding="UTF-8" standalone="no"?>
<svg
   xmlns:dc="http://purl.org/dc/elements/1.1/"
   xmlns:cc="http://creativecommons.org/ns#"
   xmlns:rdf="http://www.w3.org/1999/02/22-rdf-syntax-ns#"
   xmlns:svg="http://www.w3.org/2000/svg"
   xmlns="http://www.w3.org/2000/svg"
   xmlns:sodipodi="http://sodipodi.sourceforge.net/DTD/sodipodi-0.dtd"
   xmlns:inkscape="http://www.inkscape.org/namespaces/inkscape"
   data-name="Layer 1"
   viewBox="0 0 18 18"
   x="0px"
   y="0px"
   version="1.1"
   id="svg16"
   sodipodi:docname="cpu.svg"
   width="18"
   height="18"
   inkscape:version="0.92.3 (2405546, 2018-03-11)">
  <metadata
     id="metadata22">
    <rdf:RDF>
      <cc:Work
         rdf:about="">
        <dc:format>image/svg+xml</dc:format>
        <dc:type
           rdf:resource="http://purl.org/dc/dcmitype/StillImage" />
      </cc:Work>
    </rdf:RDF>
  </metadata>
  <defs
     id="defs20" />
  <sodipodi:namedview
     pagecolor="#ffffff"
     bordercolor="#666666"
     borderopacity="1"
     objecttolerance="10"
     gridtolerance="10"
     guidetolerance="10"
     inkscape:pageopacity="0"
     inkscape:pageshadow="2"
     inkscape:window-width="1914"
     inkscape:window-height="1042"
     id="namedview18"
     showgrid="false"
     inkscape:zoom="41.955556"
     inkscape:cx="7.4552235"
     inkscape:cy="2.952137"
     inkscape:window-x="0"
     inkscape:window-y="16"
     inkscape:window-maximized="0"
     inkscape:current-layer="svg16" />
  <title
     id="title2">Artboard 1 copy 2</title>
  <path
     id="path10"
     style="stroke:#52ff00;fill:#52ff00;stroke-opacity:1;opacity:1;stroke-width:0.3;stroke-miterlimit:3;stroke-dasharray:none"
     d="m 11,6.75 a 0.25,0.25 0 0 1 0.25,0.24 v 4 A 0.25,0.25 0 0 1 11,11.24 H 7 A 0.25,0.25 0 0 1 6.75,11 V 7 A 0.25,0.25 0 0 1 7,6.75 h 4 M 11,6 H 7 A 1,1 0 0 0 6,7 v 4 a 1,1 0 0 0 1,1 h 4 a 1,1 0 0 0 1,-1 V 7 A 1,1 0 0 0 11,6 Z M 7.0000001,6.3800001 H 11.01 c 0.34348,0 0.62,0.27652 0.62,0.62 V 11.01 c 0,0.34348 -0.27652,0.62 -0.62,0.62 H 7.0000001 c -0.34348,0 -0.62,-0.27652 -0.62,-0.62 V 7.0000001 c 0,-0.34348 0.27652,-0.62 0.62,-0.62 z M 13.25,0.75 v 2 h 1.25 a 0.76,0.76 0 0 1 0.75,0.75 v 1.25 h 2 v 0.5 h -2 v 3.5 h 2 v 0.5 h -2 v 3.5 h 2 v 0.5 h -2 v 1.25 a 0.76,0.76 0 0 1 -0.75,0.75 h -1.25 v 2 h -0.5 v -2 h -3.5 v 2 h -0.5 v -2 h -3.5 v 2 h -0.5 v -2 H 3.5 A 0.76,0.76 0 0 1 2.75,14.5 v -1.25 h -2 v -0.5 h 2 v -3.5 h -2 v -0.5 h 2 v -3.5 h -2 v -0.5 h 2 V 3.5 A 0.76,0.76 0 0 1 3.5,2.75 h 1.25 v -2 h 0.5 v 2 h 3.5 v -2 h 0.5 v 2 h 3.5 v -2 h 0.5 m -8.18,14 h 7.86 a 1.83,1.83 0 0 0 1.82,-1.82 V 5.07 A 1.83,1.83 0 0 0 12.93,3.25 H 5.07 A 1.83,1.83 0 0 0 3.25,5.07 v 7.86 a 1.83,1.83 0 0 0 1.82,1.82 M 13.75,0 h -1.5 A 0.25,0.25 0 0 0 12,0.25 V 2 H 10 V 0.25 A 0.25,0.25 0 0 0 9.75,0 H 8.25 A 0.25,0.25 0 0 0 8,0.25 V 2 H 6 V 0.25 A 0.25,0.25 0 0 0 5.75,0 H 4.25 A 0.25,0.25 0 0 0 4,0.25 V 2 H 3.5 A 1.5,1.5 0 0 0 2,3.5 V 4 H 0.25 A 0.25,0.25 0 0 0 0,4.25 v 1.5 A 0.25,0.25 0 0 0 0.25,6 H 2 V 8 H 0.25 A 0.25,0.25 0 0 0 0,8.25 v 1.5 A 0.25,0.25 0 0 0 0.25,10 H 2 v 2 H 0.25 A 0.25,0.25 0 0 0 0,12.25 v 1.5 A 0.25,0.25 0 0 0 0.25,14 H 2 v 0.5 A 1.5,1.5 0 0 0 3.5,16 H 4 v 1.75 A 0.25,0.25 0 0 0 4.25,18 h 1.5 A 0.25,0.25 0 0 0 6,17.75 V 16 h 2 v 1.75 A 0.25,0.25 0 0 0 8.25,18 h 1.5 A 0.25,0.25 0 0 0 10,17.75 V 16 h 2 v 1.75 A 0.25,0.25 0 0 0 12.25,18 h 1.5 A 0.25,0.25 0 0 0 14,17.75 V 16 h 0.5 A 1.5,1.5 0 0 0 16,14.5 V 14 h 1.75 A 0.25,0.25 0 0 0 18,13.75 v -1.5 A 0.25,0.25 0 0 0 17.75,12 H 16 v -2 h 1.75 A 0.25,0.25 0 0 0 18,9.75 V 8.25 A 0.25,0.25 0 0 0 17.75,8 H 16 V 6 h 1.75 A 0.25,0.25 0 0 0 18,5.75 V 4.25 A 0.25,0.25 0 0 0 17.75,4 H 16 V 3.5 A 1.5,1.5 0 0 0 14.5,2 H 14 V 0.25 A 0.25,0.25 0 0 0 13.75,0 Z M 5.07,14 A 1.07,1.07 0 0 1 4,12.93 V 5.07 A 1.07,1.07 0 0 1 5.07,4 h 7.86 A 1.07,1.07 0 0 1 14,5.07 v 7.86 A 1.07,1.07 0 0 1 12.93,14 Z m 7.31,3.62 v -2 H 9.62 v 2 H 8.38 v -2 H 5.62 v 2 H 4.38 v -2 H 3.5 A 1.12,1.12 0 0 1 2.38,14.5 v -0.88 h -2 v -1.24 h 2 V 9.62 h -2 V 8.38 h 2 V 5.62 h -2 V 4.38 h 2 V 3.5 A 1.12,1.12 0 0 1 3.5,2.38 h 0.88 v -2 h 1.24 v 2 h 2.76 v -2 h 1.24 v 2 h 2.76 v -2 h 1.24 v 2 h 0.88 a 1.12,1.12 0 0 1 1.12,1.12 v 0.88 h 2 v 1.24 h -2 v 2.76 h 2 v 1.24 h -2 v 2.76 h 2 v 1.24 h -2 v 0.88 a 1.12,1.12 0 0 1 -1.12,1.12 h -0.88 v 2 z M 5.07,3.62 A 1.45,1.45 0 0 0 3.62,5.07 v 7.86 a 1.45,1.45 0 0 0 1.45,1.45 h 7.86 a 1.45,1.45 0 0 0 1.45,-1.45 V 5.07 A 1.45,1.45 0 0 0 12.93,3.62 Z" />
</svg>
