<?xml version="1.0" encoding="UTF-8" standalone="no"?>
<svg
   version="1.1"
   x="0px"
   y="0px"
   viewBox="0 0 300 299.99999"
   xml:space="preserve"
   id="svg18"
   sodipodi:docname="microphone-muted.svg"
   inkscape:version="1.3.2 (091e20ef0f, 2023-11-25, custom)"
   width="300"
   height="300"
   xmlns:inkscape="http://www.inkscape.org/namespaces/inkscape"
   xmlns:sodipodi="http://sodipodi.sourceforge.net/DTD/sodipodi-0.dtd"
   xmlns="http://www.w3.org/2000/svg"
   xmlns:svg="http://www.w3.org/2000/svg"><defs
     id="defs18" /><sodipodi:namedview
     id="namedview18"
     pagecolor="#505050"
     bordercolor="#ffffff"
     borderopacity="1"
     inkscape:showpageshadow="0"
     inkscape:pageopacity="0"
     inkscape:pagecheckerboard="1"
     inkscape:deskcolor="#505050"
     inkscape:zoom="1.2069153"
     inkscape:cx="-44.742162"
     inkscape:cy="115.16964"
     inkscape:window-width="2252"
     inkscape:window-height="1470"
     inkscape:window-x="0"
     inkscape:window-y="30"
     inkscape:window-maximized="1"
     inkscape:current-layer="g1"
     showgrid="false" /><g
     id="g1"
     transform="matrix(0.23487069,0,0,0.23487069,-33.140654,-3.0656092)"><g
       id="g18"
       transform="matrix(1,0,0,1.0094647,212.8831,-0.12353593)"><g
         id="g16"
         transform="matrix(1.4990594,0,0,1.4990594,-71.639089,-6.5138876)"><g
           id="g3"
           style="fill:#ffffff"
           transform="translate(-86.083807,-86.458783)"><path
             d="m 635,393.8 v 184.7 c 0,24.2 -19.8,44 -44,44 H 403"
             id="path1"
             style="fill:#ffffff" /><g
             id="g2"
             style="fill:#ffffff"><path
               d="m 615,393.8 c 0,24 0,48 0,72.1 0,33.8 0,67.7 0,101.5 0,3.4 0,6.7 0,10.1 0,1.2 0.2,5 -0.2,5.1 -0.1,0 0.8,-4.2 0.3,-1.9 -0.2,0.9 -0.3,1.8 -0.5,2.6 -0.4,1.5 -0.9,3 -1.3,4.5 -1,3.3 1.9,-3.2 -0.3,0.7 -0.9,1.5 -1.7,3 -2.7,4.5 -2.6,4 1.9,-1.8 -0.5,0.6 -1.2,1.2 -2.5,2.5 -3.7,3.7 -2.4,2.4 3.5,-2.1 -0.6,0.5 -1.5,0.9 -3,1.8 -4.5,2.7 -0.1,0.1 -1.7,0.9 -1.8,0.9 -0.3,-0.3 4.2,-1.4 1.1,-0.5 -1.5,0.4 -3,1 -4.5,1.3 -0.9,0.2 -1.8,0.3 -2.6,0.5 -2.2,0.5 1.9,-0.3 1.9,-0.3 -0.9,-0.3 -3.1,0.2 -4.1,0.2 -2.1,0 -4.2,0 -6.3,0 -31.9,0 -63.8,0 -95.7,0 -28.2,0 -56.4,-0.5 -84.6,0 -0.5,0 -1,0 -1.4,0 -10.5,0 -20.5,9.2 -20,20 0.5,10.8 8.8,20 20,20 24.5,0 49.1,0 73.6,0 34.5,0 69.1,0 103.6,0 15.1,0 29.7,-0.8 43.2,-8.9 20.9,-12.5 31.6,-34.6 31.6,-58.4 0,-30.8 0,-61.7 0,-92.5 0,-29.1 0.4,-58.2 0,-87.3 0,-0.5 0,-1 0,-1.6 0,-10.5 -9.2,-20.5 -20,-20 -10.8,0.4 -20,8.7 -20,19.9 z"
               id="path2"
               style="fill:#ffffff" /></g></g><g
           id="g5"
           style="fill:#ffffff"
           transform="translate(-86.083807,-86.458783)"><path
             d="m 389,478.5 v -315 c 0,-24.2 19.8,-44 44,-44 h 158 c 24.2,0 44,19.8 44,44 v 68.3 z"
             id="path3"
             style="fill:#ffffff" /><g
             id="g4"
             style="fill:#ffffff"><path
               d="m 409,478.5 c 0,-33.1 0,-66.2 0,-99.3 0,-55.2 0,-110.3 0,-165.5 0,-15.4 0,-30.9 0,-46.3 0,-1.2 0,-2.4 0,-3.5 0,-0.8 0,-1.6 0.1,-2.4 0.2,-4.2 -0.4,0.4 -0.2,0.6 -0.2,-0.1 0.7,-3.6 0.8,-4 0.3,-1.1 0.7,-2.1 0.9,-3.2 1.3,-4.8 -1.6,2.6 0.3,-0.7 1.1,-1.9 2.2,-3.8 3.3,-5.6 2.4,-3.8 -3.1,3.1 0.1,0 0.9,-0.9 1.8,-1.9 2.7,-2.8 0.2,-0.2 1.9,-1.8 1.9,-1.7 -0.7,0.5 -1.3,1 -2,1.5 0.7,-0.5 1.4,-1 2.1,-1.5 0.9,-0.6 1.8,-1.2 2.8,-1.7 0.6,-0.3 1.1,-0.6 1.7,-0.9 2,-0.9 1.6,-0.8 -1.2,0.4 0.1,-0.7 5.5,-1.7 6.4,-1.9 0.4,-0.1 0.9,-0.2 1.3,-0.3 2.2,-0.4 1.8,-0.3 -1.3,0.1 0.1,-0.3 3.8,-0.2 4.1,-0.2 0.3,0 0.7,0 1,0 46.5,-0.2 93,0 139.5,0 5.8,0 11.5,-0.1 17.3,0 0.1,0 0.1,0 0.2,0 0.3,0 4.1,-0.1 4.1,0.2 -0.1,-0.4 -4.7,-0.8 -0.6,0 0.8,0.2 6.9,1.3 7,2.1 0,0.3 -3.9,-2 -1.2,-0.4 1.5,0.9 3.1,1.6 4.5,2.6 0.4,0.2 0.7,0.5 1.1,0.7 1.7,1.3 1.4,1 -0.9,-0.7 0.1,0 2.1,1.9 1.9,1.7 0.9,0.9 1.8,1.9 2.7,2.8 3,3 -1.5,-2.8 -0.3,-0.5 1.1,2.1 2.5,4.1 3.7,6.1 2.1,3.7 -0.7,-3.1 -0.2,-0.5 0.3,1.5 1,3 1.4,4.4 0.1,0.3 1,3.8 0.8,4 -0.3,0.1 -0.3,-5.3 -0.3,-1.2 0,1 0.1,2 0.1,3.1 0,1.2 0,2.4 0,3.6 0,5.4 0,10.8 0,16.2 0,13.4 0,26.8 0,40.2 0,2.7 0,5.3 0,8 2,-4.7 3.9,-9.4 5.9,-14.1 -8.1,8.2 -16.3,16.3 -24.4,24.5 -19.6,19.6 -39.1,39.2 -58.7,58.8 -23.7,23.7 -47.3,47.5 -71,71.2 -20.5,20.5 -41,41.1 -61.5,61.6 -10,10 -20.3,19.8 -30,30.1 -0.1,0.2 -0.3,0.3 -0.4,0.4 -7.4,7.4 -8,21 0,28.3 8,7.3 20.4,7.9 28.3,0 14.9,-14.9 29.7,-29.8 44.6,-44.7 31.4,-31.5 62.9,-63 94.3,-94.6 28.3,-28.4 56.6,-56.8 84.9,-85.2 6.8,-6.8 13.7,-13.7 20.5,-20.5 4.6,-4.6 7.5,-10 7.6,-16.8 0.2,-8 0,-15.9 0,-23.9 0,-11.1 0,-22.2 0,-33.4 0,-9.3 0.2,-18.5 -2.4,-27.5 -5.9,-20.6 -21.7,-36.3 -41.6,-43.4 -7.7,-2.7 -16,-3.2 -24.1,-3.2 -39.6,0 -79.3,0 -118.9,0 -11.6,0 -23.3,-0.2 -34.9,0 -35.4,0.5 -63.7,29.3 -64,64.6 -0.3,26.1 0,52.2 0,78.3 0,45.8 0,91.5 0,137.3 0,31.4 0,62.7 0,94.1 0,1.6 0,3.2 0,4.8 0,10.5 9.2,20.5 20,20 11,-0.7 20.2,-9 20.2,-20.2 z"
               id="path4"
               style="fill:#ffffff" /></g></g><g
           id="g7"
           style="fill:#ffffff"
           transform="translate(-86.083807,-86.458783)"><g
             id="g6"
             style="fill:#ffffff"><path
               d="m 308,582.5 c 0,-27.5 0,-54.9 0,-82.4 0,-3.9 0,-7.8 0,-11.6 0,-20.9 -18.4,-41 -40,-40 -21.7,1 -40,17.6 -40,40 0,27.5 0,54.9 0,82.4 0,3.9 0,7.8 0,11.6 0,20.9 18.4,41 40,40 21.7,-1 40,-17.6 40,-40 z"
               id="path5"
               style="fill:#ffffff" /></g></g><g
           id="g9"
           style="fill:#ffffff"
           transform="translate(-86.083807,-86.458783)"><g
             id="g8"
             style="fill:#ffffff"><path
               d="m 716,488.5 c 0,29.7 0,59.4 0,89.1 0,8.6 -0.3,17.2 -1.4,25.7 0.5,-3.5 1,-7.1 1.4,-10.6 -1.9,13.9 -5.5,27.4 -10.9,40.4 1.3,-3.2 2.7,-6.4 4,-9.6 -5.5,13.1 -12.6,25.3 -21.3,36.5 2.1,-2.7 4.2,-5.4 6.3,-8.1 -8.4,10.7 -18,20.4 -28.8,28.8 2.7,-2.1 5.4,-4.2 8.1,-6.3 -11.2,8.6 -23.4,15.8 -36.5,21.3 3.2,-1.3 6.4,-2.7 9.6,-4 -13,5.3 -26.5,9 -40.4,10.9 3.5,-0.5 7.1,-1 10.6,-1.4 -10.6,1.4 -21.2,1.4 -31.9,1.4 -13.9,0 -27.7,0 -41.6,0 -32.8,0 -65.6,0 -98.4,0 -12.6,0 -25.2,0.2 -37.8,-1.4 3.5,0.5 7.1,1 10.6,1.4 -14,-1.9 -27.7,-5.6 -40.7,-11 3.2,1.3 6.4,2.7 9.6,4 -9.7,-4.1 -18.9,-9.1 -27.7,-15 -8.3,-5.6 -21.4,-6.6 -30.8,-4 -9.3,2.6 -19.3,9.7 -23.9,18.4 -10.6,20.2 -4.2,42.3 14.4,54.7 32.1,21.5 71.1,32.7 109.7,32.9 10,0 19.9,0 29.9,0 38.3,0 76.6,0 114.9,0 9.5,0 19.1,0.2 28.6,-0.1 34.4,-1.2 68.8,-11 98.2,-29.1 C 758.7,717 795.7,652 796,582.6 c 0.1,-30.3 0,-60.6 0,-90.8 0,-1.1 0,-2.1 0,-3.2 0,-20.9 -18.4,-41 -40,-40 -21.7,0.9 -40,17.5 -40,39.9 z"
               id="path7"
               style="fill:#ffffff" /></g></g><g
           id="g11"
           style="fill:#ffffff"
           transform="translate(-86.083807,-86.458783)"><g
             id="g10"
             style="fill:#ffffff"><path
               d="m 512,922.5 c 20.9,0 41,-18.4 40,-40 -1,-21.7 -17.6,-40 -40,-40 -20.9,0 -41,18.4 -40,40 1,21.7 17.6,40 40,40 z"
               id="path9"
               style="fill:#ffffff" /></g></g><g
           id="g13"
           style="fill:#ffffff"
           transform="translate(-86.083807,-86.458783)"><g
             id="g12"
             style="fill:#ffffff"><path
               d="m 685.8,863.5 c -11.5,0 -23.1,0 -34.6,0 -27.5,0 -55.1,0 -82.6,0 -33.5,0 -67,0 -100.5,0 -29,0 -57.9,0 -86.9,0 -14.1,0 -28.2,-0.2 -42.2,0 -0.2,0 -0.4,0 -0.6,0 -20.9,0 -41,18.4 -40,40 1,21.7 17.6,40 40,40 11.5,0 23.1,0 34.6,0 27.5,0 55.1,0 82.6,0 33.5,0 67,0 100.5,0 29,0 57.9,0 86.9,0 14.1,0 28.2,0.2 42.2,0 0.2,0 0.4,0 0.6,0 20.9,0 41,-18.4 40,-40 -1,-21.7 -17.6,-40 -40,-40 z"
               id="path11"
               style="fill:#ffffff" /></g></g><g
           id="g15"
           style="fill:#ffffff"
           transform="translate(-86.083807,-86.458783)"><g
             id="g14"
             style="fill:#ffffff"><path
               d="m 552,894.5 c 0,-44.4 0,-88.9 0,-133.3 0,-6.2 0,-12.5 0,-18.7 0,-20.9 -18.4,-41 -40,-40 -21.7,1 -40,17.6 -40,40 0,44.4 0,88.9 0,133.3 0,6.2 0,12.5 0,18.7 0,20.9 18.4,41 40,40 21.7,-1 40,-17.6 40,-40 z"
               id="path13"
               style="fill:#ffffff" /></g></g></g><g
         id="g17"
         style="fill:#ffffff"
         transform="translate(55.017896,133.56369)"><path
           d="m 869.5,97.9 c -6.9,6.9 -13.8,13.8 -20.7,20.7 -18.8,18.8 -37.5,37.5 -56.3,56.3 -27.7,27.7 -55.5,55.5 -83.2,83.2 -33.7,33.7 -67.4,67.4 -101.2,101.2 -36.9,36.9 -73.8,73.8 -110.8,110.8 -37.4,37.4 -74.8,74.8 -112.2,112.2 -34.9,34.9 -69.7,69.7 -104.6,104.6 -29.4,29.4 -58.7,58.7 -88.1,88.1 -21.1,21.1 -42.3,42.3 -63.4,63.4 -10,10 -20.2,20 -30.1,30.1 -0.4,0.4 -0.9,0.9 -1.3,1.3 -14.8,14.8 -15.9,42 0,56.6 16,14.7 40.8,15.8 56.6,0 6.9,-6.9 13.8,-13.8 20.7,-20.7 18.8,-18.8 37.5,-37.5 56.3,-56.3 27.7,-27.7 55.5,-55.5 83.2,-83.2 33.7,-33.7 67.4,-67.4 101.2,-101.2 36.9,-36.9 73.8,-73.8 110.8,-110.8 37.4,-37.4 74.8,-74.8 112.2,-112.2 34.9,-34.9 69.7,-69.7 104.6,-104.6 29.4,-29.4 58.7,-58.7 88.1,-88.1 21.1,-21.1 42.3,-42.3 63.4,-63.4 10,-10 20.2,-20 30.1,-30.1 0.4,-0.4 0.9,-0.9 1.3,-1.3 14.8,-14.8 15.9,-42 0,-56.6 -16,-14.7 -40.7,-15.8 -56.6,0 z"
           id="path15"
           style="fill:#ffffff" /></g></g></g></svg>
