<?xml version="1.0" encoding="UTF-8" standalone="no"?>
<svg
   version="1.1"
   x="0px"
   y="0px"
   viewBox="0 0 300 300"
   xml:space="preserve"
   id="svg12"
   sodipodi:docname="microphone-normal.svg"
   inkscape:version="1.3.2 (091e20ef0f, 2023-11-25, custom)"
   width="300"
   height="300"
   xmlns:inkscape="http://www.inkscape.org/namespaces/inkscape"
   xmlns:sodipodi="http://sodipodi.sourceforge.net/DTD/sodipodi-0.dtd"
   xmlns="http://www.w3.org/2000/svg"
   xmlns:svg="http://www.w3.org/2000/svg"><defs
     id="defs12" /><sodipodi:namedview
     id="namedview12"
     pagecolor="#505050"
     bordercolor="#ffffff"
     borderopacity="1"
     inkscape:showpageshadow="0"
     inkscape:pageopacity="0"
     inkscape:pagecheckerboard="1"
     inkscape:deskcolor="#505050"
     inkscape:zoom="0.79442755"
     inkscape:cx="473.29678"
     inkscape:cy="334.8323"
     inkscape:window-width="2232"
     inkscape:window-height="1450"
     inkscape:window-x="10"
     inkscape:window-y="40"
     inkscape:window-maximized="0"
     inkscape:current-layer="svg12" /><g
     id="g12"
     transform="matrix(0.35217465,0,0,0.35541281,49.999999,0)"><g
       id="g3"
       style="fill:#ffffff"
       transform="translate(-227.69996,-89.5)"><path
         d="M 591,612.5 H 433 c -24.2,0 -44,-19.8 -44,-44 v -415 c 0,-24.2 19.8,-44 44,-44 h 158 c 24.2,0 44,19.8 44,44 v 415 c 0,24.2 -19.8,44 -44,44 z"
         id="path1"
         style="fill:#ffffff" /><g
         id="g2"
         style="fill:#ffffff"><path
           d="m 591,592.5 c -46.4,0 -92.8,0 -139.2,0 -6.2,0 -12.4,0.1 -18.7,0 -0.5,0 -1,0 -1.5,0 -0.5,0 -0.9,0 -1.4,-0.1 -2.2,-0.2 -1.8,-0.1 1.2,0.3 -0.1,0.2 -3.6,-0.7 -4,-0.8 -1.3,-0.3 -2.5,-0.8 -3.8,-1.2 -3.8,-1.1 1.3,0.4 1.1,0.5 -0.2,0.2 -7.8,-4 -7.9,-4.7 0.7,0.5 1.3,1 2,1.5 -0.7,-0.6 -1.3,-1.1 -1.9,-1.7 -0.9,-0.9 -1.8,-1.9 -2.7,-2.8 -2.2,-2.2 0.8,1 0.7,1 -0.4,0 -2,-2.8 -2.2,-3.2 -0.7,-1.1 -1.3,-2.3 -1.9,-3.4 -2.2,-3.9 1.2,4.2 0,-0.1 -0.2,-0.8 -2.6,-7.4 -2,-7.8 0.1,0.9 0.2,1.7 0.4,2.6 -0.1,-0.9 -0.1,-1.8 -0.2,-2.8 0,-1.3 0,-0.9 0,-1.4 0,0 0,-0.1 0,-0.1 0,-0.3 0,-0.7 0,-1 0,-1.5 0,-3 0,-4.5 0,-5.8 0,-11.6 0,-17.3 0,-49.4 0,-98.8 0,-148.2 0,-58.1 0,-116.1 0,-174.2 0,-18.5 0,-37 0,-55.4 0,-4.2 0,-8.3 0,-12.5 0,-0.6 0,-1.1 0,-1.7 0,-0.3 -0.1,-4.1 0.2,-4.1 -0.1,0.9 -0.2,1.7 -0.4,2.6 0.1,-0.9 0.3,-1.8 0.5,-2.7 0.3,-1.3 0.6,-2.6 1,-3.9 0.1,-0.4 0.3,-0.8 0.4,-1.3 0.8,-2 0.6,-1.7 -0.5,1.1 -0.4,-0.3 2.9,-5.2 3.2,-5.7 0.2,-0.4 0.5,-0.7 0.7,-1.1 1.3,-1.7 1,-1.4 -0.7,0.9 -0.2,-0.3 3.2,-3.5 3.6,-3.8 -0.1,0.1 1.9,-1.8 1.9,-1.7 -0.7,0.5 -1.3,1 -2,1.5 0.7,-0.5 1.4,-1 2.1,-1.5 1.1,-0.7 2.2,-1.4 3.4,-2 0.4,-0.2 0.8,-0.4 1.2,-0.6 2,-0.9 1.6,-0.8 -1.2,0.4 0.1,-0.7 5.5,-1.7 6.4,-1.9 0.4,-0.1 0.9,-0.2 1.3,-0.3 2.2,-0.4 1.8,-0.3 -1.3,0.1 0.1,-0.3 3.8,-0.2 4.1,-0.2 1.5,0 3,0 4.5,0 9.8,0 19.7,0 29.5,0 29.3,0 58.5,0 87.8,0 10.2,0 20.3,0 30.5,0 1.8,0 3.7,0 5.6,0 1,0 1.9,0.1 2.9,0.1 4.6,0 -4.4,-1.1 0.1,0 0.9,0.2 1.8,0.4 2.6,0.6 1.3,0.3 2.5,0.8 3.8,1.2 4.3,1.3 -3.8,-2.2 0.1,0 0.9,0.5 6.7,3 6.7,4.1 -0.7,-0.5 -1.3,-1 -2,-1.5 0.7,0.6 1.3,1.1 1.9,1.7 0.9,0.9 1.8,1.9 2.7,2.8 3.2,3.1 -2.3,-3.7 0.1,0 0.7,1.1 1.4,2.2 2.1,3.3 0.4,0.8 0.8,1.6 1.2,2.3 2.2,3.9 -1.2,-4.2 0,0.1 0.4,1.3 0.8,2.5 1.2,3.8 0.2,0.9 0.4,1.7 0.6,2.6 0.4,2.2 0.3,1.8 -0.1,-1.3 -0.4,1.5 0.2,3.7 0.2,5.4 0,3.9 0,7.8 0,11.7 0,45.3 0,90.5 0,135.8 0,59.4 0,118.8 0,178.2 0,29.8 1,59.7 0,89.4 0,0.5 0,0.9 -0.1,1.4 -0.2,2.2 -0.1,1.8 0.3,-1.2 0.2,0.1 -0.6,2.9 -0.7,3.3 -0.3,1.1 -0.6,2.2 -0.9,3.2 -0.1,0.4 -0.3,0.8 -0.4,1.3 -0.8,2 -0.6,1.7 0.5,-1.1 0.5,0.5 -3.5,6.2 -3.9,6.8 -2.1,3.2 0.7,-1.1 0.7,-0.9 0.1,0.2 -2.4,2.7 -2.6,2.9 -0.2,0.2 -2.7,2.8 -2.9,2.6 0.7,-0.5 1.3,-1 2,-1.5 -0.7,0.5 -1.4,1 -2.1,1.5 -0.3,0.2 -5.4,3.5 -5.7,3.2 0.8,-0.3 1.6,-0.7 2.4,-1 -0.8,0.3 -1.7,0.6 -2.5,0.9 -1.3,0.4 -2.6,0.8 -3.9,1 -0.4,0.1 -0.9,0.2 -1.3,0.3 -2.2,0.4 -1.8,0.3 1.3,-0.1 0,0.4 -3.8,0.3 -4.1,0.3 -10.5,0.2 -20.5,9.1 -20,20 0.5,10.7 8.8,20.2 20,20 28.3,-0.4 53.7,-19.2 61.6,-46.6 2.1,-7.1 2.4,-14.5 2.4,-21.9 0,-14.7 0,-29.5 0,-44.2 0,-56.9 0,-113.9 0,-170.8 0,-54 0,-107.9 0,-161.9 0,-11 0.1,-22 0,-33 -0.1,-21.1 -10,-39.8 -26.7,-52.4 -12.2,-9.2 -26.8,-12.2 -41.8,-12.2 -49.8,0 -99.5,0 -149.3,0 -17,0 -32.2,4.5 -45.5,15.3 -14.6,12 -22.6,30.6 -22.7,49.3 -0.1,11.2 0,22.4 0,33.6 0,53.9 0,107.8 0,161.8 0,57 0,114 0,171 0,14.6 0,29.2 0,43.8 0,7.7 0.4,15.5 2.8,22.9 8.6,26.7 33.1,44.9 61.2,45.3 47.5,0.7 95,0 142.5,0 5.2,0 10.4,0 15.5,0 10.5,0 20.5,-9.2 20,-20 -0.5,-10.8 -8.8,-20 -20,-20 z"
           id="path2"
           style="fill:#ffffff" /></g></g><g
       id="g5"
       style="fill:#ffffff"
       transform="translate(-227.69996,-89.5)"><g
         id="g4"
         style="fill:#ffffff"><path
           d="m 716,478.5 c 0,29.7 0,59.4 0,89.1 0,8.6 -0.3,17.2 -1.4,25.7 0.5,-3.5 1,-7.1 1.4,-10.6 -1.9,13.9 -5.5,27.4 -10.9,40.4 1.3,-3.2 2.7,-6.4 4,-9.6 -5.5,13.1 -12.6,25.3 -21.3,36.5 2.1,-2.7 4.2,-5.4 6.3,-8.1 -8.4,10.7 -18,20.4 -28.8,28.8 2.7,-2.1 5.4,-4.2 8.1,-6.3 -11.2,8.6 -23.4,15.8 -36.5,21.3 3.2,-1.3 6.4,-2.7 9.6,-4 -13,5.3 -26.5,9 -40.4,10.9 3.5,-0.5 7.1,-1 10.6,-1.4 -10.7,1.4 -21.4,1.4 -32.2,1.4 -14.1,0 -28.2,0 -42.3,0 -33,0 -66,0 -99,0 -12.1,0 -24.1,0.2 -36.2,-1.4 3.5,0.5 7.1,1 10.6,1.4 -13.9,-1.9 -27.4,-5.5 -40.4,-10.9 3.2,1.3 6.4,2.7 9.6,4 -13.1,-5.5 -25.3,-12.6 -36.5,-21.3 2.7,2.1 5.4,4.2 8.1,6.3 -10.7,-8.4 -20.4,-18 -28.8,-28.8 2.1,2.7 4.2,5.4 6.3,8.1 -8.6,-11.2 -15.8,-23.4 -21.3,-36.5 1.3,3.2 2.7,6.4 4,9.6 -5.3,-13 -9,-26.5 -10.9,-40.4 0.5,3.5 1,7.1 1.4,10.6 -1.9,-14.7 -1.4,-29.6 -1.4,-44.3 0,-18.8 0,-37.6 0,-56.4 0,-4.7 0,-9.4 0,-14.1 0,-20.9 -18.4,-41 -40,-40 -21.7,1 -40,17.6 -40,40 0,22 0,44 0,66 0,30.4 -0.1,60.6 9.9,89.8 15.8,46.3 47.3,86.2 89.7,111 32,18.7 68.1,27.2 105,27.2 49.3,0 98.7,0 148,0 27.9,0 55.9,-1.7 82.2,-11.7 24.7,-9.4 46.3,-22 66.2,-39.4 16.7,-14.5 31,-32.6 41.7,-52 11.2,-20.2 19.2,-42.5 22.4,-65.5 1.9,-14 2.8,-27.7 2.8,-41.8 0,-25.9 0,-51.7 0,-77.6 0,-2.1 0,-4.1 0,-6.2 0,-20.9 -18.4,-41 -40,-40 -21.3,1.2 -39.6,17.8 -39.6,40.2 z"
           id="path3"
           style="fill:#ffffff" /></g></g><g
       id="g7"
       style="fill:#ffffff"
       transform="translate(-227.69996,-89.5)"><g
         id="g6"
         style="fill:#ffffff"><path
           d="m 512,912.5 c 20.9,0 41,-18.4 40,-40 -1,-21.7 -17.6,-40 -40,-40 -20.9,0 -41,18.4 -40,40 1,21.7 17.6,40 40,40 z"
           id="path5"
           style="fill:#ffffff" /></g></g><g
       id="g9"
       style="fill:#ffffff"
       transform="translate(-227.69996,-89.5)"><g
         id="g8"
         style="fill:#ffffff"><path
           d="m 685.8,853.5 c -11.5,0 -23.1,0 -34.6,0 -27.5,0 -55.1,0 -82.6,0 -33.5,0 -67,0 -100.5,0 -29,0 -57.9,0 -86.9,0 -14.1,0 -28.2,-0.2 -42.2,0 -0.2,0 -0.4,0 -0.6,0 -20.9,0 -41,18.4 -40,40 1,21.7 17.6,40 40,40 11.5,0 23.1,0 34.6,0 27.5,0 55.1,0 82.6,0 33.5,0 67,0 100.5,0 29,0 57.9,0 86.9,0 14.1,0 28.2,0.2 42.2,0 0.2,0 0.4,0 0.6,0 20.9,0 41,-18.4 40,-40 -1,-21.7 -17.6,-40 -40,-40 z"
           id="path7"
           style="fill:#ffffff" /></g></g><g
       id="g11"
       style="fill:#ffffff"
       transform="translate(-227.69996,-89.5)"><g
         id="g10"
         style="fill:#ffffff"><path
           d="m 552,884.5 c 0,-44.4 0,-88.9 0,-133.3 0,-6.2 0,-12.5 0,-18.7 0,-20.9 -18.4,-41 -40,-40 -21.7,1 -40,17.6 -40,40 0,44.4 0,88.9 0,133.3 0,6.2 0,12.5 0,18.7 0,20.9 18.4,41 40,40 21.7,-1 40,-17.6 40,-40 z"
           id="path9"
           style="fill:#ffffff" /></g></g></g></svg>
