<?xml version="1.0" encoding="UTF-8" standalone="no"?>
<svg
   xmlns:dc="http://purl.org/dc/elements/1.1/"
   xmlns:cc="http://creativecommons.org/ns#"
   xmlns:rdf="http://www.w3.org/1999/02/22-rdf-syntax-ns#"
   xmlns:svg="http://www.w3.org/2000/svg"
   xmlns="http://www.w3.org/2000/svg"
   xmlns:sodipodi="http://sodipodi.sourceforge.net/DTD/sodipodi-0.dtd"
   xmlns:inkscape="http://www.inkscape.org/namespaces/inkscape"
   version="1.1"
   x="0px"
   y="0px"
   viewBox="0 0 52.720001 80"
   enable-background="new 0 0 96 96"
   xml:space="preserve"
   id="svg16"
   sodipodi:docname="download.svg"
   width="52.720001"
   height="80"
   inkscape:version="0.92.3 (2405546, 2018-03-11)"><metadata
     id="metadata22"><rdf:RDF><cc:Work
         rdf:about=""><dc:format>image/svg+xml</dc:format><dc:type
           rdf:resource="http://purl.org/dc/dcmitype/StillImage" /><dc:title></dc:title></cc:Work></rdf:RDF></metadata><defs
     id="defs20" /><sodipodi:namedview
     pagecolor="#ffffff"
     bordercolor="#666666"
     borderopacity="1"
     objecttolerance="10"
     gridtolerance="10"
     guidetolerance="10"
     inkscape:pageopacity="0"
     inkscape:pageshadow="2"
     inkscape:window-width="954"
     inkscape:window-height="1042"
     id="namedview18"
     showgrid="false"
     inkscape:zoom="1.9666667"
     inkscape:cx="-15.807012"
     inkscape:cy="7.6610169"
     inkscape:window-x="0"
     inkscape:window-y="16"
     inkscape:window-maximized="0"
     inkscape:current-layer="svg16" /><g
     id="g10"
     transform="translate(-21.64,-8)"
     style="fill:#ff7000;fill-opacity:1"><polygon
       points="69.796,52.752 64.96,47.914 48.001,64.872 31.042,47.914 26.204,52.752 47.977,74.522 48.001,74.498 48.024,74.522 "
       id="polygon2"
       style="fill:#ff7000;fill-opacity:1" /><polygon
       points="69.796,32.795 64.96,27.957 48.001,44.915 31.042,27.957 26.204,32.795 47.977,54.565 48.001,54.541 48.024,54.565 "
       id="polygon4"
       style="fill:#ff7000;fill-opacity:1" /><polygon
       points="69.796,12.838 64.96,8 48.001,24.958 31.042,8 26.204,12.838 47.977,34.608 48.001,34.584 48.024,34.608 "
       id="polygon6"
       style="fill:#ff7000;fill-opacity:1" /><polygon
       points="21.682,87.965 21.681,87.998 74.36,88 74.36,81.158 21.64,81.158 21.64,87.965 "
       id="polygon8"
       style="fill:#ff7000;fill-opacity:1" /></g></svg>