<?xml version="1.0" encoding="UTF-8" standalone="no"?>
<svg
   xmlns:dc="http://purl.org/dc/elements/1.1/"
   xmlns:cc="http://creativecommons.org/ns#"
   xmlns:rdf="http://www.w3.org/1999/02/22-rdf-syntax-ns#"
   xmlns:svg="http://www.w3.org/2000/svg"
   xmlns="http://www.w3.org/2000/svg"
   xmlns:sodipodi="http://sodipodi.sourceforge.net/DTD/sodipodi-0.dtd"
   xmlns:inkscape="http://www.inkscape.org/namespaces/inkscape"
   version="1.1"
   x="0px"
   y="0px"
   viewBox="0 0 59.719002 80"
   enable-background="new 0 0 96 96"
   xml:space="preserve"
   id="svg16"
   sodipodi:docname="upload.svg"
   width="59.719002"
   height="80"
   inkscape:version="0.92.3 (2405546, 2018-03-11)"><metadata
     id="metadata22"><rdf:RDF><cc:Work
         rdf:about=""><dc:format>image/svg+xml</dc:format><dc:type
           rdf:resource="http://purl.org/dc/dcmitype/StillImage" /><dc:title></dc:title></cc:Work></rdf:RDF></metadata><defs
     id="defs20" /><sodipodi:namedview
     pagecolor="#ffffff"
     bordercolor="#666666"
     borderopacity="1"
     objecttolerance="10"
     gridtolerance="10"
     guidetolerance="10"
     inkscape:pageopacity="0"
     inkscape:pageshadow="2"
     inkscape:window-width="954"
     inkscape:window-height="1042"
     id="namedview18"
     showgrid="false"
     inkscape:zoom="1.9666667"
     inkscape:cx="-0.49974284"
     inkscape:cy="-33.016949"
     inkscape:window-x="0"
     inkscape:window-y="16"
     inkscape:window-maximized="0"
     inkscape:current-layer="svg16" /><g
     id="g10"
     transform="translate(-18.14,-8)"
     style="fill:#ff0f00;fill-opacity:1"><polygon
       points="26.204,43.248 31.04,48.086 47.999,31.128 64.958,48.086 69.796,43.248 48.022,21.479 47.999,21.502 47.976,21.479 "
       id="polygon2"
       style="fill:#ff0f00;fill-opacity:1" /><polygon
       points="26.204,63.205 31.04,68.043 47.999,51.085 64.958,68.043 69.796,63.205 48.022,41.436 47.999,41.459 47.976,41.436 "
       id="polygon4"
       style="fill:#ff0f00;fill-opacity:1" /><polygon
       points="26.204,83.162 31.04,88 47.999,71.042 64.958,88 69.796,83.162 48.022,61.393 47.999,61.416 47.976,61.393 "
       id="polygon6"
       style="fill:#ff0f00;fill-opacity:1" /><polygon
       points="18.14,8 18.14,14.842 77.859,14.842 77.859,8.035 77.817,8.035 77.818,8.002 "
       id="polygon8"
       style="fill:#ff0f00;fill-opacity:1" /></g></svg>