<?xml version="1.0" encoding="UTF-8" standalone="no"?>
<svg
   xmlns:dc="http://purl.org/dc/elements/1.1/"
   xmlns:cc="http://creativecommons.org/ns#"
   xmlns:rdf="http://www.w3.org/1999/02/22-rdf-syntax-ns#"
   xmlns:svg="http://www.w3.org/2000/svg"
   xmlns="http://www.w3.org/2000/svg"
   xmlns:sodipodi="http://sodipodi.sourceforge.net/DTD/sodipodi-0.dtd"
   xmlns:inkscape="http://www.inkscape.org/namespaces/inkscape"
   version="1.1"
   x="0px"
   y="0px"
   viewBox="0 0 76.109001 78.793001"
   enable-background="new 0 0 100 100"
   xml:space="preserve"
   id="svg32"
   sodipodi:docname="ram.svg"
   width="19.02725"
   height="19.69825"
   inkscape:version="0.92.3 (2405546, 2018-03-11)"><metadata
     id="metadata38"><rdf:RDF><cc:Work
         rdf:about=""><dc:format>image/svg+xml</dc:format><dc:type
           rdf:resource="http://purl.org/dc/dcmitype/StillImage" /><dc:title></dc:title></cc:Work></rdf:RDF></metadata><defs
     id="defs36" /><sodipodi:namedview
     pagecolor="#ffffff"
     bordercolor="#666666"
     borderopacity="1"
     objecttolerance="10"
     gridtolerance="10"
     guidetolerance="10"
     inkscape:pageopacity="0"
     inkscape:pageshadow="2"
     inkscape:window-width="954"
     inkscape:window-height="1042"
     id="namedview34"
     showgrid="false"
     inkscape:zoom="1.888"
     inkscape:cx="46.639712"
     inkscape:cy="-74.57163"
     inkscape:window-x="960"
     inkscape:window-y="16"
     inkscape:window-maximized="0"
     inkscape:current-layer="svg32"
     scale-x="4" /><rect
     width="100"
     height="100"
     id="rect2"
     x="-11.946"
     y="-10.602997"
     style="fill:none" /><g
     id="g26"
     transform="translate(-11.946,-10.603)"><polygon
       style="fill:#ff4d00"
       points="23.476,14.481 20.994,17.428 20.994,21.927 25.182,21.927 29.37,21.927 29.37,17.428 26.888,14.481 26.888,10.603 25.182,10.603 23.476,10.603 "
       id="polygon4" /><polygon
       style="fill:#ff4d00"
       points="35.885,14.481 33.403,17.428 33.403,21.927 37.591,21.927 41.779,21.927 41.779,17.428 39.297,14.481 39.297,10.603 37.591,10.603 35.885,10.603 "
       id="polygon6" /><polygon
       style="fill:#ff4d00"
       points="48.294,14.481 45.812,17.428 45.812,21.927 50,21.927 54.188,21.927 54.188,17.428 51.706,14.481 51.706,10.603 50,10.603 48.294,10.603 "
       id="polygon8" /><polygon
       style="fill:#ff4d00"
       points="60.703,14.481 58.222,17.428 58.222,21.927 62.41,21.927 66.598,21.927 66.598,17.428 64.116,14.481 64.116,10.603 62.41,10.603 60.703,10.603 "
       id="polygon10" /><polygon
       style="fill:#ff4d00"
       points="73.112,14.481 70.631,17.428 70.631,21.927 74.818,21.927 79.006,21.927 79.006,17.428 76.524,14.481 76.524,10.603 74.818,10.603 73.112,10.603 "
       id="polygon12" /><polygon
       style="fill:#ff4d00"
       points="26.888,85.52 29.37,82.572 29.37,78.074 25.182,78.074 20.994,78.074 20.994,82.572 23.476,85.52 23.476,89.396 25.182,89.396 26.888,89.396 "
       id="polygon14" /><polygon
       style="fill:#ff4d00"
       points="39.297,85.52 41.779,82.572 41.779,78.074 37.591,78.074 33.403,78.074 33.403,82.572 35.885,85.52 35.885,89.396 37.591,89.396 39.297,89.396 "
       id="polygon16" /><polygon
       style="fill:#ff4d00"
       points="51.706,85.52 54.188,82.572 54.188,78.074 50,78.074 45.812,78.074 45.812,82.572 48.294,85.52 48.294,89.396 50,89.396 51.706,89.396 "
       id="polygon18" /><polygon
       style="fill:#ff4d00"
       points="64.116,85.52 66.598,82.572 66.598,78.074 62.41,78.074 58.222,78.074 58.222,82.572 60.703,85.52 60.703,89.396 62.41,89.396 64.116,89.396 "
       id="polygon20" /><polygon
       style="fill:#ff4d00"
       points="76.524,85.52 79.006,82.572 79.006,78.074 74.818,78.074 70.631,78.074 70.631,82.572 73.112,85.52 73.112,89.396 74.818,89.396 76.524,89.396 "
       id="polygon22" /><path
       style="fill:#ff4d00"
       d="M 82.988,24.045 H 17.013 c -2.799,0 -5.067,2.268 -5.067,5.067 v 41.777 c 0,2.799 2.269,5.066 5.067,5.066 h 65.976 c 2.798,0 5.066,-2.268 5.066,-5.066 V 29.112 c 0,-2.799 -2.269,-5.067 -5.067,-5.067 z"
       id="path24"
       inkscape:connector-curvature="0" /></g></svg>