<?xml version="1.0" encoding="UTF-8" standalone="no"?>
<svg
   xmlns:dc="http://purl.org/dc/elements/1.1/"
   xmlns:cc="http://creativecommons.org/ns#"
   xmlns:rdf="http://www.w3.org/1999/02/22-rdf-syntax-ns#"
   xmlns:svg="http://www.w3.org/2000/svg"
   xmlns="http://www.w3.org/2000/svg"
   xmlns:sodipodi="http://sodipodi.sourceforge.net/DTD/sodipodi-0.dtd"
   xmlns:inkscape="http://www.inkscape.org/namespaces/inkscape"
   version="1.1"
   x="0px"
   y="0px"
   viewBox="0 0 79.563004 70.559998"
   enable-background="new 0 0 96 96"
   xml:space="preserve"
   id="svg28"
   sodipodi:docname="date.svg"
   width="79.563004"
   height="70.559998"
   inkscape:version="0.92.5 (2060ec1f9f, 2020-04-08)"><metadata
     id="metadata34"><rdf:RDF><cc:Work
         rdf:about=""><dc:format>image/svg+xml</dc:format><dc:type
           rdf:resource="http://purl.org/dc/dcmitype/StillImage" /><dc:title /></cc:Work></rdf:RDF></metadata><defs
     id="defs32" /><sodipodi:namedview
     pagecolor="#ffffff"
     bordercolor="#666666"
     borderopacity="1"
     objecttolerance="10"
     gridtolerance="10"
     guidetolerance="10"
     inkscape:pageopacity="0"
     inkscape:pageshadow="2"
     inkscape:window-width="1902"
     inkscape:window-height="1028"
     id="namedview30"
     showgrid="false"
     inkscape:zoom="3.9333334"
     inkscape:cx="-9.0556802"
     inkscape:cy="9.7179212"
     inkscape:window-x="6"
     inkscape:window-y="24"
     inkscape:window-maximized="0"
     inkscape:current-layer="g22" /><g
     id="g22"
     transform="translate(-8.219,-12.72)"
     style="fill:#e5ffff;fill-opacity:1"><rect
       x="18.75"
       y="40.823002"
       width="9.1169996"
       height="9.1169996"
       id="rect2"
       style="fill:#ffffff;fill-opacity:1" /><rect
       x="18.75"
       y="61.723"
       width="9.1169996"
       height="9.1169996"
       id="rect4"
       style="fill:#ffffff;fill-opacity:1" /><rect
       x="43.441002"
       y="40.823002"
       width="9.1169996"
       height="9.1169996"
       id="rect6"
       style="fill:#ffffff;fill-opacity:1" /><path
       d="m 76.75,12.72 v 3.204 c 1.596,0.441 2.779,1.893 2.779,3.628 0,2.084 -1.695,3.779 -3.779,3.779 -2.084,0 -3.779,-1.696 -3.779,-3.779 0,-1.735 1.182,-3.187 2.779,-3.628 V 12.72 h -53.5 v 3.204 c 1.597,0.441 2.778,1.893 2.778,3.628 0,2.084 -1.694,3.779 -3.778,3.779 -2.084,0 -3.779,-1.696 -3.779,-3.779 0,-1.735 1.182,-3.187 2.779,-3.628 V 12.72 H 8.219 V 26.382 H 87.782 V 12.72 Z"
       id="path8"
       inkscape:connector-curvature="0"
       style="fill:#ffffff;fill-opacity:1" /><circle
       cx="20.25"
       cy="19.551001"
       r="1.779"
       id="circle10"
       style="fill:#ffffff;fill-opacity:1" /><circle
       cx="75.75"
       cy="19.551001"
       r="1.779"
       id="circle12"
       style="fill:#ffffff;fill-opacity:1" /><rect
       x="43.441002"
       y="61.723"
       width="9.1169996"
       height="9.1169996"
       id="rect14"
       style="fill:#ffffff;fill-opacity:1" /><rect
       x="68.133003"
       y="61.723"
       width="9.1169996"
       height="9.1169996"
       id="rect16"
       style="fill:#ffffff;fill-opacity:1" /><rect
       x="68.133003"
       y="40.823002"
       width="9.1169996"
       height="9.1169996"
       id="rect18"
       style="fill:#ffffff;fill-opacity:1" /><path
       d="M 8.219,83.28 H 87.782 V 28.382 H 8.219 Z M 66.133,38.823 H 79.25 V 51.94 H 66.133 Z m 0,20.9 H 79.25 V 72.84 H 66.133 Z M 41.44,38.823 H 54.558 V 51.94 H 41.44 Z m 0,20.9 H 54.558 V 72.84 H 41.44 Z M 16.75,38.823 H 29.867 V 51.94 H 16.75 Z m 0,20.9 H 29.867 V 72.84 H 16.75 Z"
       id="path20"
       inkscape:connector-curvature="0"
       style="fill:#ffffff;fill-opacity:1" /></g></svg>