<?xml version="1.0" encoding="UTF-8" standalone="no"?>
<!-- Generator: Adobe Illustrator 13.0.0, SVG Export Plug-In . SVG Version: 6.00 Build 14948)  -->

<svg
   version="1.1"
   id="Ebene_1"
   x="0px"
   y="0px"
   width="256"
   height="256"
   viewBox="0 0 255.99999 256"
   xml:space="preserve"
   sodipodi:docname="dialog-error.svg"
   inkscape:version="1.3.2 (091e20ef0f, 2023-11-25, custom)"
   xmlns:inkscape="http://www.inkscape.org/namespaces/inkscape"
   xmlns:sodipodi="http://sodipodi.sourceforge.net/DTD/sodipodi-0.dtd"
   xmlns="http://www.w3.org/2000/svg"
   xmlns:svg="http://www.w3.org/2000/svg"><defs
   id="defs2" /><sodipodi:namedview
   id="namedview2"
   pagecolor="#505050"
   bordercolor="#ffffff"
   borderopacity="1"
   inkscape:showpageshadow="0"
   inkscape:pageopacity="0"
   inkscape:pagecheckerboard="1"
   inkscape:deskcolor="#505050"
   showgrid="false"
   inkscape:zoom="1.4289261"
   inkscape:cx="216.24631"
   inkscape:cy="200.50022"
   inkscape:window-width="2252"
   inkscape:window-height="1446"
   inkscape:window-x="0"
   inkscape:window-y="30"
   inkscape:window-maximized="1"
   inkscape:current-layer="Ebene_1" />
<g
   id="g1"
   transform="matrix(0.58576945,0,0,0.58576945,-47.590255,-129.19203)">
	<path
   style="fill:#ffffff"
   d="m 326.039,513.568 h -69.557 v -9.441 c 0,-10.531 2.12,-19.876 6.358,-28.034 4.239,-8.156 13.165,-18.527 26.783,-31.117 l 12.33,-11.176 c 7.322,-6.678 12.684,-12.973 16.09,-18.882 3.4,-5.907 5.105,-11.817 5.105,-17.727 0,-8.99 -3.084,-16.022 -9.248,-21.098 -6.166,-5.073 -14.773,-7.611 -25.819,-7.611 -10.405,0 -21.646,2.152 -33.719,6.455 -12.075,4.305 -24.663,10.693 -37.765,19.171 v -60.5 c 15.541,-5.395 29.735,-9.375 42.582,-11.946 12.843,-2.568 25.241,-3.854 37.186,-3.854 31.342,0 55.232,6.392 71.678,19.171 16.439,12.783 24.662,31.439 24.662,55.973 0,12.591 -2.506,23.862 -7.516,33.815 -5.008,9.956 -13.553,20.649 -25.625,32.08 l -12.332,10.983 c -8.736,7.966 -14.451,14.354 -17.148,19.171 -2.697,4.817 -4.045,10.115 -4.045,15.896 z m -69.557,28.517 h 69.557 v 68.593 h -69.557 z"
   id="path1" />
</g>
<circle
   style="fill:#f44336;stroke-width:0.58577"
   cx="128"
   cy="128"
   id="circle1"
   r="128" />
<g
   id="g2"
   transform="matrix(0.58576945,0,0,0.58576945,-47.590255,-129.19203)">
	
		<rect
   x="267.16199"
   y="307.978"
   transform="matrix(0.7071,-0.7071,0.7071,0.7071,-222.6202,340.6915)"
   style="fill:#ffffff"
   width="65.544998"
   height="262.17999"
   id="rect1" />
	
		<rect
   x="266.98801"
   y="308.15302"
   transform="matrix(0.7071,0.7071,-0.7071,0.7071,398.3889,-83.3116)"
   style="fill:#ffffff"
   width="65.543999"
   height="262.17899"
   id="rect2" />
</g>
</svg>
