<?xml version="1.0" encoding="UTF-8" standalone="no"?>
<svg
   version="1.1"
   viewBox="0 0 256 256"
   width="256"
   height="256"
   id="svg3"
   sodipodi:docname="dialog-info.svg"
   inkscape:version="1.3.2 (091e20ef0f, 2023-11-25, custom)"
   xmlns:inkscape="http://www.inkscape.org/namespaces/inkscape"
   xmlns:sodipodi="http://sodipodi.sourceforge.net/DTD/sodipodi-0.dtd"
   xmlns="http://www.w3.org/2000/svg"
   xmlns:svg="http://www.w3.org/2000/svg">
  <defs
     id="defs3" />
  <sodipodi:namedview
     id="namedview3"
     pagecolor="#505050"
     bordercolor="#ffffff"
     borderopacity="1"
     inkscape:showpageshadow="0"
     inkscape:pageopacity="0"
     inkscape:pagecheckerboard="1"
     inkscape:deskcolor="#505050"
     showgrid="false"
     inkscape:zoom="4.6992188"
     inkscape:cx="105.76226"
     inkscape:cy="105.86866"
     inkscape:window-width="2252"
     inkscape:window-height="1446"
     inkscape:window-x="0"
     inkscape:window-y="30"
     inkscape:window-maximized="1"
     inkscape:current-layer="svg3" />
  <path
     d="M 128,0 A 128,128 0 0 0 0,128 128,128 0 0 0 128,256 128,128 0 0 0 256,128 128,128 0 0 0 128,0 Z m 0,39.619048 c 6.24036,0.141496 11.54951,2.267573 15.93953,6.377022 4.03931,4.323507 6.13152,9.602418 6.27665,15.837944 -0.14513,6.235525 -2.23734,11.37294 -6.27665,15.412245 -4.39002,4.535147 -9.69917,6.802721 -15.93953,6.802721 -6.24036,0 -11.3681,-2.267574 -15.40741,-6.802721 -4.53514,-4.039305 -6.80877,-9.17672 -6.80877,-15.412245 0,-6.235526 2.27363,-11.514437 6.80877,-15.837944 4.03931,-4.109449 9.16705,-6.235526 15.40741,-6.377022 z m -19.77324,65.054572 h 39.65533 v 111.70975 h -39.65533 z"
     fill-rule="evenodd"
     fill="#4682b4"
     id="path1"
     style="stroke-width:1.20937" />
  <path
     d="m 119.34171,81.610731 c -1.44304,-0.603533 -4.65176,-3.216068 -7.13047,-5.805631 -3.87858,-4.052026 -4.58552,-5.797239 -5.07185,-12.520656 -0.46079,-6.370314 -0.0405,-8.66122 2.27712,-12.411152 7.91546,-12.807477 26.93929,-13.873805 35.78443,-2.005798 7.37762,9.898963 4.51818,25.073502 -5.92462,31.440879 -4.40523,2.686045 -14.97511,3.37659 -19.93461,1.302358 z"
     style="fill:#ffffff;stroke-width:1.31187"
     id="path2" />
  <path
     d="m 108.19089,160.27423 v -55.09821 h 19.67793 19.67792 v 55.09821 55.09819 h -19.67792 -19.67793 z"
     style="fill:#ffffff;stroke-width:1.31187"
     id="path3" />
</svg>
