<?xml version="1.0" standalone="no"?>
<!DOCTYPE svg PUBLIC "-//W3C//DTD SVG 20010904//EN"
 "http://www.w3.org/TR/2001/REC-SVG-20010904/DTD/svg10.dtd">
<svg version="1.0" xmlns="http://www.w3.org/2000/svg"
 width="64.000000pt" height="64.000000pt" viewBox="0 0 64.000000 64.000000"
 preserveAspectRatio="xMidYMid meet">
<metadata>
Created by potrace 1.16, written by Peter Selinger 2001-2019
</metadata>
<g transform="translate(0.000000,64.000000) scale(0.100000,-0.100000)"
fill="#000000" stroke="none">
<path d="M0 320 l0 -320 320 0 320 0 0 320 0 320 -320 0 -320 0 0 -320z m440
80 l0 -200 -200 0 -200 0 0 200 0 200 200 0 200 0 0 -200z m160 120 l0 -80
-60 0 -60 0 0 80 0 80 60 0 60 0 0 -80z m0 -200 l0 -80 -60 0 -60 0 0 80 0 80
60 0 60 0 0 -80z m0 -200 l0 -80 -60 0 -60 0 0 80 0 80 60 0 60 0 0 -80z
m-380 -20 l0 -60 -90 0 -90 0 0 60 0 60 90 0 90 0 0 -60z m220 0 l0 -60 -90 0
-90 0 0 60 0 60 90 0 90 0 0 -60z"/>
</g>
</svg>
