<?xml version="1.0" standalone="no"?>
<!DOCTYPE svg PUBLIC "-//W3C//DTD SVG 20010904//EN"
 "http://www.w3.org/TR/2001/REC-SVG-20010904/DTD/svg10.dtd">
<svg version="1.0" xmlns="http://www.w3.org/2000/svg"
 width="64.000000pt" height="64.000000pt" viewBox="0 0 64.000000 64.000000"
 preserveAspectRatio="xMidYMid meet">
<metadata>
Created by potrace 1.16, written by Peter Selinger 2001-2019
</metadata>
<g transform="translate(0.000000,64.000000) scale(0.100000,-0.100000)"
fill="#000000" stroke="none">
<path d="M0 320 l0 -320 320 0 320 0 0 320 0 320 -320 0 -320 0 0 -320z m320
0 l0 -280 -140 0 -140 0 0 280 0 280 140 0 140 0 0 -280z m280 120 l0 -160
-120 0 -120 0 0 160 0 160 120 0 120 0 0 -160z m-120 -300 l0 -100 -60 0 -60
0 0 100 0 100 60 0 60 0 0 -100z m120 40 l0 -60 -40 0 -40 0 0 60 0 60 40 0
40 0 0 -60z m0 -120 c0 -17 -7 -20 -40 -20 -33 0 -40 3 -40 20 0 17 7 20 40
20 33 0 40 -3 40 -20z"/>
</g>
</svg>
