<?xml version="1.0" standalone="no"?>
<!DOCTYPE svg PUBLIC "-//W3C//DTD SVG 20010904//EN"
 "http://www.w3.org/TR/2001/REC-SVG-20010904/DTD/svg10.dtd">
<svg version="1.0" xmlns="http://www.w3.org/2000/svg"
 width="64.000000pt" height="64.000000pt" viewBox="0 0 64.000000 64.000000"
 preserveAspectRatio="xMidYMid meet">
<metadata>
Created by potrace 1.16, written by Peter Selinger 2001-2019
</metadata>
<g transform="translate(0.000000,64.000000) scale(0.100000,-0.100000)"
fill="#000000" stroke="none">
<path d="M0 320 l0 -320 320 0 320 0 0 320 0 320 -320 0 -320 0 0 -320z m600
0 l0 -280 -280 0 -280 0 0 280 0 280 280 0 280 0 0 -280z"/>
<path d="M90 487 l0 -71 65 64 c35 35 63 65 62 66 -1 1 -30 4 -64 7 l-63 5 0
-71z"/>
<path d="M472 551 l-53 -6 66 -65 65 -64 0 72 c0 52 -4 72 -12 70 -7 -1 -37
-4 -66 -7z"/>
<path d="M85 160 c-4 -33 -5 -63 -2 -66 2 -3 35 -4 71 -2 l67 3 -65 64 -64 63
-7 -62z"/>
<path d="M480 155 l-64 -65 72 0 72 0 -1 28 c0 15 -3 44 -7 65 l-7 38 -65 -66z"/>
</g>
</svg>
