<?xml version="1.0" standalone="no"?>
<!DOCTYPE svg PUBLIC "-//W3C//DTD SVG 20010904//EN"
 "http://www.w3.org/TR/2001/REC-SVG-20010904/DTD/svg10.dtd">
<svg version="1.0" xmlns="http://www.w3.org/2000/svg"
 width="64.000000pt" height="64.000000pt" viewBox="0 0 64.000000 64.000000"
 preserveAspectRatio="xMidYMid meet">
<metadata>
Created by potrace 1.16, written by Peter Selinger 2001-2019
</metadata>
<g transform="translate(0.000000,64.000000) scale(0.100000,-0.100000)"
fill="#000000" stroke="none">
<path d="M0 320 l0 -320 320 0 320 0 0 320 0 320 -320 0 -320 0 0 -320z m280
240 l0 -40 -68 0 c-40 0 -73 -5 -80 -12 -7 -7 -12 -40 -12 -80 l0 -68 -40 0
-40 0 0 120 0 120 120 0 120 0 0 -40z m320 -80 l0 -120 -40 0 -40 0 0 68 c0
40 -5 73 -12 80 -7 7 -40 12 -80 12 l-68 0 0 40 0 40 120 0 120 0 0 -120z
m-120 -160 l0 -160 -160 0 -160 0 0 160 0 160 160 0 160 0 0 -160z m-360 -108
c0 -40 5 -73 12 -80 7 -7 40 -12 80 -12 l68 0 0 -40 0 -40 -120 0 -120 0 0
120 0 120 40 0 40 0 0 -68z m480 -52 l0 -120 -120 0 -120 0 0 40 0 40 68 0
c40 0 73 5 80 12 7 7 12 40 12 80 l0 68 40 0 40 0 0 -120z"/>
</g>
</svg>
