<?xml version="1.0" standalone="no"?>
<!DOCTYPE svg PUBLIC "-//W3C//DTD SVG 20010904//EN"
 "http://www.w3.org/TR/2001/REC-SVG-20010904/DTD/svg10.dtd">
<svg version="1.0" xmlns="http://www.w3.org/2000/svg"
 width="64.000000pt" height="64.000000pt" viewBox="0 0 64.000000 64.000000"
 preserveAspectRatio="xMidYMid meet">
<metadata>
Created by potrace 1.16, written by Peter Selinger 2001-2019
</metadata>
<g transform="translate(0.000000,64.000000) scale(0.100000,-0.100000)"
fill="#000000" stroke="none">
<path d="M0 320 l0 -320 320 0 320 0 0 320 0 320 -320 0 -320 0 0 -320z m600
0 l0 -280 -280 0 -280 0 0 280 0 280 280 0 280 0 0 -280z"/>
<path d="M299 533 c-46 -55 -47 -53 21 -53 l63 0 -25 32 c-31 40 -41 43 -59
21z"/>
<path d="M480 320 l0 -75 37 38 38 37 -38 37 -37 38 0 -75z"/>
<path d="M120 351 l-35 -31 35 -29 35 -30 3 30 c2 16 2 43 0 59 l-3 31 -35
-30z"/>
<path d="M283 123 l37 -38 37 38 38 37 -75 0 -75 0 38 -37z"/>
</g>
</svg>
