<?xml version="1.0" standalone="no"?>
<!DOCTYPE svg PUBLIC "-//W3C//DTD SVG 20010904//EN"
 "http://www.w3.org/TR/2001/REC-SVG-20010904/DTD/svg10.dtd">
<svg version="1.0" xmlns="http://www.w3.org/2000/svg"
 width="64.000000pt" height="64.000000pt" viewBox="0 0 64.000000 64.000000"
 preserveAspectRatio="xMidYMid meet">
<metadata>
Created by potrace 1.16, written by Peter Selinger 2001-2019
</metadata>
<g transform="translate(0.000000,64.000000) scale(0.100000,-0.100000)"
fill="#000000" stroke="none">
<path d="M0 320 l0 -320 320 0 320 0 0 320 0 320 -320 0 -320 0 0 -320z m200
0 l0 -280 -80 0 -80 0 0 280 0 280 80 0 80 0 0 -280z m200 200 l0 -80 -80 0
-80 0 0 80 0 80 80 0 80 0 0 -80z m200 0 l0 -80 -80 0 -80 0 0 80 0 80 80 0
80 0 0 -80z m-200 -200 l0 -80 -80 0 -80 0 0 80 0 80 80 0 80 0 0 -80z m200 0
l0 -80 -80 0 -80 0 0 80 0 80 80 0 80 0 0 -80z m-200 -200 l0 -80 -80 0 -80 0
0 80 0 80 80 0 80 0 0 -80z m200 0 l0 -80 -80 0 -80 0 0 80 0 80 80 0 80 0 0
-80z"/>
</g>
</svg>
