<?xml version="1.0" encoding="UTF-8" standalone="no"?>
<svg
   version="1.1"
   viewBox="0 0 32 32"
   width="32"
   height="32"
   id="svg3"
   sodipodi:docname="dialog-info.svg"
   inkscape:version="1.3.2 (091e20ef0f, 2023-11-25, custom)"
   xmlns:inkscape="http://www.inkscape.org/namespaces/inkscape"
   xmlns:sodipodi="http://sodipodi.sourceforge.net/DTD/sodipodi-0.dtd"
   xmlns="http://www.w3.org/2000/svg"
   xmlns:svg="http://www.w3.org/2000/svg">
  <defs
     id="defs3" />
  <sodipodi:namedview
     id="namedview3"
     pagecolor="#505050"
     bordercolor="#ffffff"
     borderopacity="1"
     inkscape:showpageshadow="0"
     inkscape:pageopacity="0"
     inkscape:pagecheckerboard="1"
     inkscape:deskcolor="#505050"
     showgrid="false"
     inkscape:zoom="1.6614247"
     inkscape:cx="5.4170374"
     inkscape:cy="158.89976"
     inkscape:window-width="1916"
     inkscape:window-height="1046"
     inkscape:window-x="0"
     inkscape:window-y="30"
     inkscape:window-maximized="1"
     inkscape:current-layer="svg3" />
  <path
     d="M 16,0 A 16,16 0 0 0 0,16 16,16 0 0 0 16,32 16,16 0 0 0 32,16 16,16 0 0 0 16,0 Z m 0,4.952381 c 0.780045,0.017687 1.443689,0.2834466 1.992441,0.7971278 0.504914,0.5404383 0.76644,1.2003022 0.784581,1.979743 -0.01814,0.7794406 -0.279667,1.4216175 -0.784581,1.9265306 C 17.443689,10.222676 16.780045,10.506123 16,10.506123 c -0.780045,0 -1.421013,-0.283447 -1.925926,-0.8503406 -0.566893,-0.5049131 -0.851097,-1.14709 -0.851097,-1.9265307 0,-0.7794407 0.284204,-1.4393046 0.851097,-1.979743 C 14.578987,5.2358276 15.219955,4.970068 16,4.952381 Z m -2.471655,8.131822 h 4.956916 v 13.963718 h -4.956916 z"
     fill-rule="evenodd"
     fill="#4682b4"
     id="path1"
     style="stroke-width:0.151171" />
  <path
     d="m 14.917714,10.201341 c -0.18038,-0.07544 -0.58147,-0.4020081 -0.891309,-0.7257035 -0.484822,-0.5065032 -0.57319,-0.7246549 -0.633981,-1.565082 -0.0576,-0.7962893 -0.0051,-1.0826525 0.28464,-1.551394 0.989432,-1.6009346 3.367411,-1.7342256 4.473053,-0.2507248 0.922203,1.2373704 0.564773,3.1341878 -0.740577,3.9301103 -0.550654,0.335755 -1.871889,0.422073 -2.491826,0.162794 z"
     style="fill:#ffffff;stroke-width:0.163984"
     id="path2" />
  <path
     d="m 13.523861,20.034279 v -6.887277 h 2.459742 2.459739 v 6.887277 6.887273 h -2.459739 -2.459742 z"
     style="fill:#ffffff;stroke-width:0.163984"
     id="path3" />
</svg>
